<svg width="36" height="36" viewBox="0 0 36 36" fill="none" xmlns="http://www.w3.org/2000/svg">
<path d="M8.55554 23.6667H27.4444V31.2222C27.4444 32.2241 27.0464 33.185 26.3379 33.8935C25.6295 34.602 24.6686 35 23.6667 35H12.3333C11.3314 35 10.3705 34.602 9.66203 33.8935C8.95356 33.185 8.55554 32.2241 8.55554 31.2222V23.6667Z" stroke="white" stroke-width="2" stroke-linecap="round" stroke-linejoin="round"/>
<path d="M18 12.3333C18 9.32755 16.806 6.44487 14.6805 4.31946C12.5551 2.19404 9.67245 1 6.66667 1H1V4.77778C1 7.78356 2.19404 10.6662 4.31946 12.7917C6.44487 14.9171 9.32755 16.1111 12.3333 16.1111H18" stroke="white" stroke-width="2" stroke-linecap="round" stroke-linejoin="round"/>
<path d="M18 16.1111C18 13.1053 19.194 10.2226 21.3195 8.09723C23.4449 5.97182 26.3275 4.77777 29.3333 4.77777H35V6.66666C35 9.67245 33.806 12.5551 31.6805 14.6805C29.5551 16.8059 26.6725 18 23.6667 18H18" stroke="white" stroke-width="2" stroke-linecap="round" stroke-linejoin="round"/>
<path d="M18 23.6667V12.3333" stroke="white" stroke-width="2" stroke-linecap="round" stroke-linejoin="round"/>
</svg>
