<svg width="27" height="27" viewBox="0 0 27 27" fill="none" xmlns="http://www.w3.org/2000/svg">
<path d="M13.5 0C5.90625 0 0 5.90625 0 13.5C0 22.3594 8.01562 26.1562 9.28125 26.1562C10.125 26.1562 10.125 25.7344 10.125 25.3125V23.2031C7.17188 24.0469 5.90625 22.3594 5.48438 21.0938C5.48438 21.0938 5.48438 20.6719 4.64062 19.8281C4.21875 19.4062 2.53125 18.5625 4.21875 18.5625C5.48438 18.5625 6.32812 20.25 6.32812 20.25C7.59375 21.9375 9.28125 21.5156 10.125 21.0938C10.125 20.25 10.9688 19.4062 10.9688 19.4062C7.59375 18.9844 5.0625 17.7188 5.0625 13.0781C5.0625 11.3906 5.48438 10.125 6.32812 9.28125C6.32812 9.28125 5.48438 7.59375 6.32812 5.48438C6.32812 5.48438 8.4375 5.48438 10.125 7.17188C11.3906 6.32812 15.6094 6.32812 16.875 7.17188C18.5625 5.48438 20.6719 5.48438 20.6719 5.48438C21.5156 8.4375 20.6719 9.28125 20.6719 9.28125C21.5156 10.125 21.9375 11.3906 21.9375 13.0781C21.9375 17.7188 18.9844 18.9844 16.0312 19.4062C16.4531 19.8281 16.875 20.6719 16.875 21.9375V25.3125C16.875 25.7344 16.875 26.1562 17.7188 26.1562C18.9844 26.1562 27 22.3594 27 13.5C27 5.90625 21.0938 0 13.5 0Z" fill="white"/>
</svg>
